<?xml version="1.0" encoding="UTF-8" standalone="no"?>
<!DOCTYPE svg PUBLIC "-//W3C//DTD SVG 1.1//EN" "http://www.w3.org/Graphics/SVG/1.1/DTD/svg11.dtd">
<svg width="100%" height="100%" viewBox="0 0 232 118" version="1.1" xmlns="http://www.w3.org/2000/svg" xmlns:xlink="http://www.w3.org/1999/xlink" xml:space="preserve" xmlns:serif="http://www.serif.com/" style="fill-rule:evenodd;clip-rule:evenodd;stroke-linejoin:round;stroke-miterlimit:2;">
    <g id="Artboard1" transform="matrix(0.28875,0,0,0.195,0,0)">
        <g transform="matrix(3.4632,0,0,5.1282,-1114.04,-849.283)">
            <g>
                <g>
                    <g transform="matrix(48,0,0,48,430.346,231.125)">
                        <path d="M0.351,-0.382L0.401,-0.382C0.445,-0.382 0.476,-0.389 0.494,-0.403C0.512,-0.416 0.521,-0.44 0.521,-0.472C0.521,-0.5 0.513,-0.519 0.497,-0.53C0.482,-0.541 0.452,-0.547 0.408,-0.547L0.351,-0.547L0.351,-0.382ZM0.067,0L0.067,-0.743L0.553,-0.743C0.637,-0.743 0.698,-0.723 0.739,-0.683C0.779,-0.643 0.799,-0.582 0.799,-0.499C0.799,-0.403 0.777,-0.331 0.734,-0.282C0.69,-0.234 0.625,-0.21 0.538,-0.21L0.351,-0.21L0.351,0L0.067,0Z" style="fill:white;fill-rule:nonzero;"/>
                    </g>
                    <g transform="matrix(48,0,0,48,470.471,231.125)">
                        <path d="M0.304,-0.468C0.31,-0.431 0.314,-0.391 0.317,-0.346C0.319,-0.302 0.321,-0.252 0.321,-0.198L0.321,0L0.067,0L0.067,-0.743L0.389,-0.743L0.474,-0.552C0.485,-0.528 0.496,-0.499 0.509,-0.466C0.521,-0.433 0.535,-0.394 0.55,-0.349L0.559,-0.349C0.554,-0.385 0.549,-0.424 0.547,-0.466C0.544,-0.507 0.543,-0.555 0.543,-0.607L0.543,-0.743L0.796,-0.743L0.796,0L0.511,0L0.391,-0.264C0.375,-0.299 0.361,-0.333 0.348,-0.367C0.335,-0.401 0.323,-0.435 0.313,-0.468L0.304,-0.468Z" style="fill:white;fill-rule:nonzero;"/>
                    </g>
                    <g transform="matrix(48,0,0,48,511.885,231.125)">
                        <path d="M0.351,-0.382L0.401,-0.382C0.445,-0.382 0.476,-0.389 0.494,-0.403C0.512,-0.416 0.521,-0.44 0.521,-0.472C0.521,-0.5 0.513,-0.519 0.497,-0.53C0.482,-0.541 0.452,-0.547 0.408,-0.547L0.351,-0.547L0.351,-0.382ZM0.067,0L0.067,-0.743L0.553,-0.743C0.637,-0.743 0.698,-0.723 0.739,-0.683C0.779,-0.643 0.799,-0.582 0.799,-0.499C0.799,-0.403 0.777,-0.331 0.734,-0.282C0.69,-0.234 0.625,-0.21 0.538,-0.21L0.351,-0.21L0.351,0L0.067,0Z" style="fill:white;fill-rule:nonzero;"/>
                    </g>
                </g>
                <g transform="matrix(0.892449,0,0,0.892449,48.7212,62.3986)">
                    <g transform="matrix(24,0,0,24,430.346,212.457)">
                        <path d="M0.673,-0.026C0.62,-0.01 0.569,0.001 0.521,0.009C0.472,0.017 0.425,0.021 0.381,0.021C0.264,0.021 0.177,-0.012 0.121,-0.079C0.064,-0.145 0.036,-0.248 0.036,-0.386C0.036,-0.519 0.064,-0.615 0.121,-0.674C0.177,-0.733 0.268,-0.763 0.394,-0.763C0.44,-0.763 0.486,-0.76 0.533,-0.753C0.579,-0.746 0.626,-0.736 0.673,-0.722L0.673,-0.469C0.632,-0.475 0.596,-0.479 0.564,-0.482C0.532,-0.484 0.505,-0.486 0.482,-0.486C0.428,-0.486 0.389,-0.477 0.367,-0.458C0.345,-0.439 0.334,-0.408 0.334,-0.363C0.334,-0.316 0.346,-0.282 0.369,-0.261C0.392,-0.24 0.43,-0.229 0.481,-0.229C0.509,-0.229 0.538,-0.231 0.57,-0.236C0.602,-0.24 0.636,-0.247 0.673,-0.256L0.673,-0.026Z" style="fill:white;fill-rule:nonzero;"/>
                    </g>
                    <g transform="matrix(24,0,0,24,447.479,212.457)">
                        <path d="M0.347,-0.396L0.406,-0.396C0.45,-0.396 0.481,-0.402 0.499,-0.415C0.517,-0.427 0.526,-0.448 0.526,-0.478C0.526,-0.503 0.518,-0.521 0.502,-0.531C0.487,-0.542 0.457,-0.547 0.413,-0.547L0.347,-0.547L0.347,-0.396ZM0.067,0L0.067,-0.743L0.562,-0.743C0.647,-0.743 0.71,-0.726 0.749,-0.693C0.788,-0.66 0.808,-0.607 0.808,-0.535C0.808,-0.465 0.791,-0.411 0.757,-0.374C0.723,-0.336 0.673,-0.316 0.607,-0.312L0.841,0L0.513,0L0.403,-0.172C0.392,-0.189 0.382,-0.207 0.373,-0.225C0.364,-0.243 0.356,-0.262 0.348,-0.281L0.342,-0.281C0.344,-0.264 0.345,-0.245 0.346,-0.226C0.347,-0.206 0.347,-0.178 0.347,-0.141L0.347,0L0.067,0Z" style="fill:white;fill-rule:nonzero;"/>
                    </g>
                    <g transform="matrix(24,0,0,24,467.764,212.457)">
                        <path d="M0.067,0L0.067,-0.743L0.676,-0.743L0.676,-0.526L0.342,-0.526L0.342,-0.44L0.676,-0.44L0.676,-0.278L0.342,-0.278L0.342,-0.187L0.676,-0.187L0.676,0L0.067,0Z" style="fill:white;fill-rule:nonzero;"/>
                    </g>
                    <g transform="matrix(24,0,0,24,485.377,212.457)">
                        <path d="M-0.003,0L0.203,-0.743L0.621,-0.743L0.827,0L0.534,0L0.512,-0.118L0.306,-0.118L0.281,0L-0.003,0ZM0.481,-0.298L0.44,-0.469C0.433,-0.498 0.427,-0.525 0.423,-0.551C0.418,-0.578 0.415,-0.603 0.413,-0.626L0.406,-0.626C0.403,-0.599 0.399,-0.572 0.394,-0.546C0.39,-0.519 0.384,-0.493 0.378,-0.466L0.337,-0.298L0.481,-0.298Z" style="fill:white;fill-rule:nonzero;"/>
                    </g>
                    <g transform="matrix(24,0,0,24,504.08,212.457)">
                        <path d="M0.216,0L0.216,-0.495L0.025,-0.495L0.025,-0.743L0.692,-0.743L0.692,-0.495L0.501,-0.495L0.501,0L0.216,0Z" style="fill:white;fill-rule:nonzero;"/>
                    </g>
                    <g transform="matrix(24,0,0,24,521.307,212.457)">
                        <path d="M0.416,-0.206C0.453,-0.206 0.481,-0.22 0.5,-0.247C0.519,-0.274 0.528,-0.313 0.528,-0.366C0.528,-0.413 0.519,-0.449 0.5,-0.473C0.481,-0.497 0.453,-0.509 0.416,-0.509C0.379,-0.509 0.352,-0.497 0.333,-0.474C0.314,-0.45 0.305,-0.415 0.305,-0.369C0.305,-0.315 0.314,-0.274 0.333,-0.247C0.352,-0.22 0.379,-0.206 0.416,-0.206ZM0.416,0.023C0.284,0.023 0.187,-0.011 0.127,-0.078C0.066,-0.145 0.036,-0.252 0.036,-0.4C0.036,-0.527 0.067,-0.62 0.127,-0.678C0.188,-0.737 0.285,-0.766 0.416,-0.766C0.549,-0.766 0.645,-0.737 0.706,-0.678C0.767,-0.62 0.797,-0.527 0.797,-0.4C0.797,-0.252 0.767,-0.145 0.706,-0.078C0.646,-0.011 0.549,0.023 0.416,0.023Z" style="fill:white;fill-rule:nonzero;"/>
                    </g>
                    <g transform="matrix(24,0,0,24,541.299,212.457)">
                        <path d="M0.347,-0.396L0.406,-0.396C0.45,-0.396 0.481,-0.402 0.499,-0.415C0.517,-0.427 0.526,-0.448 0.526,-0.478C0.526,-0.503 0.518,-0.521 0.502,-0.531C0.487,-0.542 0.457,-0.547 0.413,-0.547L0.347,-0.547L0.347,-0.396ZM0.067,0L0.067,-0.743L0.562,-0.743C0.647,-0.743 0.71,-0.726 0.749,-0.693C0.788,-0.66 0.808,-0.607 0.808,-0.535C0.808,-0.465 0.791,-0.411 0.757,-0.374C0.723,-0.336 0.673,-0.316 0.607,-0.312L0.841,0L0.513,0L0.403,-0.172C0.392,-0.189 0.382,-0.207 0.373,-0.225C0.364,-0.243 0.356,-0.262 0.348,-0.281L0.342,-0.281C0.344,-0.264 0.345,-0.245 0.346,-0.226C0.347,-0.206 0.347,-0.178 0.347,-0.141L0.347,0L0.067,0Z" style="fill:white;fill-rule:nonzero;"/>
                    </g>
                </g>
            </g>
            <g transform="matrix(1,0,0,1,167.346,-24.5166)">
                <path d="M205.013,191.127L254.693,219.809L254.693,277.174L205.013,305.856L155.334,277.174L155.334,219.809L205.013,191.127Z" style="fill:white;"/>
            </g>
            <g transform="matrix(1,0,0,1,160.183,-119.429)">
                <path d="M212.176,325.326C218.176,313.926 230.176,313.926 236.176,319.626C242.176,325.326 242.176,336.726 236.176,348.126C231.976,356.676 221.176,365.226 212.176,370.926C203.176,365.226 192.376,356.676 188.176,348.126C182.176,336.726 182.176,325.326 188.176,319.626C194.176,313.926 206.176,313.926 212.176,325.326Z" style="fill:rgb(255,0,0);"/>
            </g>
        </g>
    </g>
</svg>
