<?xml version="1.0" encoding="UTF-8" standalone="no"?>
<!DOCTYPE svg PUBLIC "-//W3C//DTD SVG 1.1//EN" "http://www.w3.org/Graphics/SVG/1.1/DTD/svg11.dtd">
<svg width="100%" height="100%" viewBox="0 0 1500 400" version="1.1" xmlns="http://www.w3.org/2000/svg" xmlns:xlink="http://www.w3.org/1999/xlink" xml:space="preserve" xmlns:serif="http://www.serif.com/" style="fill-rule:evenodd;clip-rule:evenodd;stroke-linejoin:round;stroke-miterlimit:2;">
    <g id="Artboard1" transform="matrix(1.04167,0,0,0.444444,0,0)">
        <rect x="0" y="0" width="1440" height="900" style="fill:rgb(255,0,0);"/>
        <g transform="matrix(0.96,0,0,2.25,28.8,-1.27898e-13)">
            <path d="M1470,400L-30,400L-30,0L1470,0L1470,400ZM844.069,221.521C844.069,226.534 845.573,230.644 848.58,233.852C851.588,237.061 855.197,238.665 859.408,238.665C863.519,238.665 866.928,237.086 869.634,233.928C872.341,230.769 873.695,226.634 873.695,221.521L873.695,159.862L908.585,159.862L908.585,221.521C908.585,230.744 906.554,238.84 902.494,245.808C898.433,252.776 892.694,258.165 885.275,261.975C877.856,265.784 869.183,267.689 859.258,267.689C849.332,267.689 840.585,265.784 833.015,261.975C825.446,258.165 819.581,252.776 815.42,245.808C811.259,238.84 809.179,230.744 809.179,221.521L809.179,159.862L844.069,159.862L844.069,221.521ZM1195.37,157.607C1206.4,157.607 1216.33,159.963 1225.15,164.675C1233.97,169.387 1240.86,175.904 1245.83,184.225C1250.79,192.546 1253.27,201.92 1253.27,212.347C1253.27,222.874 1250.79,232.349 1245.83,240.77C1240.86,249.192 1233.97,255.784 1225.15,260.546C1216.33,265.308 1206.4,267.689 1195.37,267.689C1184.34,267.689 1174.42,265.308 1165.6,260.546C1156.77,255.784 1149.88,249.192 1144.92,240.77C1139.95,232.349 1137.47,222.874 1137.47,212.347C1137.47,201.82 1139.95,192.396 1144.92,184.075C1149.88,175.753 1156.77,169.261 1165.6,164.599C1174.42,159.938 1184.34,157.607 1195.37,157.607ZM236.658,157.607C247.686,157.607 257.612,159.963 266.435,164.675C275.257,169.387 282.15,175.904 287.113,184.225C292.075,192.546 294.557,201.92 294.557,212.347C294.557,222.874 292.075,232.349 287.113,240.77C282.15,249.192 275.257,255.784 266.435,260.546C257.612,265.308 247.686,267.689 236.658,267.689C225.63,267.689 215.704,265.308 206.882,260.546C198.059,255.784 191.166,249.192 186.203,240.77C181.241,232.349 178.759,222.874 178.759,212.347C178.759,201.82 181.241,192.396 186.203,184.075C191.166,175.753 198.059,169.261 206.882,164.599C215.704,159.938 225.63,157.607 236.658,157.607ZM478.63,157.607C489.658,157.607 499.584,159.963 508.406,164.675C517.229,169.387 524.122,175.904 529.084,184.225C534.047,192.546 536.529,201.92 536.529,212.347C536.529,222.874 534.047,232.349 529.084,240.77C524.122,249.192 517.229,255.784 508.406,260.546C499.584,265.308 489.658,267.689 478.63,267.689C467.601,267.689 457.676,265.308 448.853,260.546C440.031,255.784 433.138,249.192 428.175,240.77C423.212,232.349 420.731,222.874 420.731,212.347C420.731,201.82 423.212,192.396 428.175,184.075C433.138,175.753 440.031,169.261 448.853,164.599C457.676,159.938 467.601,157.607 478.63,157.607ZM629.016,196.406C623.302,193.098 616.935,190.19 609.917,187.684C602.899,185.177 597.184,183.924 592.773,183.924C588.462,183.924 586.306,185.478 586.306,188.586C586.306,190.992 587.685,192.847 590.442,194.15C593.199,195.454 597.585,196.907 603.601,198.512C611.12,200.617 617.361,202.722 622.324,204.828C627.287,206.933 631.623,210.267 635.332,214.829C639.042,219.39 640.897,225.381 640.897,232.8C640.897,240.419 638.917,246.811 634.956,251.974C630.996,257.137 625.658,260.972 618.94,263.479C612.223,265.985 604.754,267.238 596.533,267.238C587.209,267.238 577.81,265.709 568.335,262.651C558.861,259.594 550.665,255.408 543.747,250.094L556.68,223.777C561.994,228.388 568.661,232.323 576.682,235.582C584.702,238.84 591.42,240.469 596.834,240.469C599.44,240.469 601.496,239.993 602.999,239.041C604.503,238.088 605.255,236.61 605.255,234.604C605.255,232.198 603.827,230.318 600.969,228.965C598.112,227.611 593.625,226.183 587.51,224.679C580.091,222.774 573.9,220.794 568.937,218.739C563.974,216.683 559.688,213.5 556.079,209.189C552.47,204.878 550.665,199.113 550.665,191.895C550.665,184.877 552.52,178.736 556.229,173.472C559.939,168.209 565.202,164.173 572.02,161.366C578.837,158.559 586.758,157.155 595.781,157.155C604.002,157.155 612.198,158.308 620.369,160.614C628.54,162.92 635.633,165.978 641.649,169.788L629.016,196.406ZM1345.76,196.406C1340.04,193.098 1333.68,190.19 1326.66,187.684C1319.64,185.177 1313.93,183.924 1309.52,183.924C1305.2,183.924 1303.05,185.478 1303.05,188.586C1303.05,190.992 1304.43,192.847 1307.18,194.15C1309.94,195.454 1314.33,196.907 1320.34,198.512C1327.86,200.617 1334.1,202.722 1339.07,204.828C1344.03,206.933 1348.37,210.267 1352.07,214.829C1355.78,219.39 1357.64,225.381 1357.64,232.8C1357.64,240.419 1355.66,246.811 1351.7,251.974C1347.74,257.137 1342.4,260.972 1335.68,263.479C1328.96,265.985 1321.5,267.238 1313.27,267.238C1303.95,267.238 1294.55,265.709 1285.08,262.651C1275.6,259.594 1267.41,255.408 1260.49,250.094L1273.42,223.777C1278.74,228.388 1285.4,232.323 1293.42,235.582C1301.44,238.84 1308.16,240.469 1313.58,240.469C1316.18,240.469 1318.24,239.993 1319.74,239.041C1321.25,238.088 1322,236.61 1322,234.604C1322,232.198 1320.57,230.318 1317.71,228.965C1314.85,227.611 1310.37,226.183 1304.25,224.679C1296.83,222.774 1290.64,220.794 1285.68,218.739C1280.72,216.683 1276.43,213.5 1272.82,209.189C1269.21,204.878 1267.41,199.113 1267.41,191.895C1267.41,184.877 1269.26,178.736 1272.97,173.472C1276.68,168.209 1281.94,164.173 1288.76,161.366C1295.58,158.559 1303.5,157.155 1312.52,157.155C1320.74,157.155 1328.94,158.308 1337.11,160.614C1345.28,162.92 1352.38,165.978 1358.39,169.788L1345.76,196.406ZM793.389,229.642C793.389,241.372 789.829,250.495 782.711,257.012C775.593,263.529 765.918,266.787 753.687,266.787C737.445,266.787 723.76,260.671 712.631,248.44L728.422,225.882C732.332,229.792 736.267,232.75 740.227,234.755C744.187,236.76 747.571,237.762 750.378,237.762C752.884,237.762 754.84,237.011 756.243,235.507C757.647,234.003 758.349,231.797 758.349,228.89L758.349,187.383L722.557,187.383L722.557,159.862L793.389,159.862L793.389,229.642ZM176.504,187.383L176.504,159.862L81.61,159.862L81.61,187.383L111.537,187.383L111.537,265.283L146.426,265.283L146.426,187.383L176.504,187.383ZM1135.22,187.383L1135.22,159.862L1040.32,159.862L1040.32,187.383L1070.25,187.383L1070.25,265.283L1105.14,265.283L1105.14,187.383L1135.22,187.383ZM1028.29,265.283L1028.29,159.862L996.711,159.862L996.711,214.001L955.054,159.862L925.879,159.862L925.879,265.283L957.611,265.283L957.611,211.445C971.446,229.391 985.282,247.337 999.117,265.283L1028.29,265.283ZM353.809,265.283C365.539,265.283 375.841,263.103 384.714,258.741C393.586,254.38 400.429,248.239 405.241,240.319C410.054,232.399 412.46,223.125 412.46,212.498C412.46,201.971 410.104,192.722 405.392,184.751C400.68,176.781 394.012,170.64 385.39,166.329C376.768,162.018 366.692,159.862 355.163,159.862L308.092,159.862L308.092,265.283L353.809,265.283ZM1195.82,186.631C1191.81,186.631 1188.08,187.759 1184.62,190.015C1181.16,192.271 1178.4,195.354 1176.35,199.264C1174.29,203.174 1173.27,207.585 1173.27,212.498C1173.27,217.41 1174.29,221.847 1176.35,225.807C1178.4,229.767 1181.16,232.9 1184.62,235.206C1188.08,237.512 1191.81,238.665 1195.82,238.665C1199.83,238.665 1203.49,237.537 1206.8,235.281C1210.11,233.025 1212.72,229.892 1214.62,225.882C1216.53,221.872 1217.48,217.41 1217.48,212.498C1217.48,207.585 1216.53,203.149 1214.62,199.188C1212.72,195.228 1210.11,192.145 1206.8,189.94C1203.49,187.734 1199.83,186.631 1195.82,186.631ZM237.109,186.631C233.099,186.631 229.364,187.759 225.905,190.015C222.447,192.271 219.689,195.354 217.634,199.264C215.579,203.174 214.551,207.585 214.551,212.498C214.551,217.41 215.579,221.847 217.634,225.807C219.689,229.767 222.447,232.9 225.905,235.206C229.364,237.512 233.099,238.665 237.109,238.665C241.12,238.665 244.779,237.537 248.087,235.281C251.396,233.025 254.003,229.892 255.908,225.882C257.812,221.872 258.765,217.41 258.765,212.498C258.765,207.585 257.812,203.149 255.908,199.188C254.003,195.228 251.396,192.145 248.087,189.94C244.779,187.734 241.12,186.631 237.109,186.631ZM479.081,186.631C475.071,186.631 471.336,187.759 467.877,190.015C464.418,192.271 461.661,195.354 459.606,199.264C457.551,203.174 456.523,207.585 456.523,212.498C456.523,217.41 457.551,221.847 459.606,225.807C461.661,229.767 464.418,232.9 467.877,235.206C471.336,237.512 475.071,238.665 479.081,238.665C483.091,238.665 486.751,237.537 490.059,235.281C493.368,233.025 495.974,229.892 497.879,225.882C499.784,221.872 500.737,217.41 500.737,212.498C500.737,207.585 499.784,203.149 497.879,199.188C495.974,195.228 493.368,192.145 490.059,189.94C486.751,187.734 483.091,186.631 479.081,186.631ZM354.411,186.932C361.228,186.932 366.667,189.288 370.728,194C374.788,198.712 376.818,204.978 376.818,212.798C376.818,220.518 374.938,226.684 371.179,231.296C367.419,235.908 362.381,238.214 356.065,238.214L342.981,238.214L342.981,186.932L354.411,186.932Z" style="fill:white;"/>
        </g>
    </g>
</svg>
